<?xml version="1.0" encoding="utf-8"?>
<!-- Generator: Adobe Illustrator 16.0.0, SVG Export Plug-In . SVG Version: 6.00 Build 0)  -->
<!DOCTYPE svg PUBLIC "-//W3C//DTD SVG 1.1//EN" "http://www.w3.org/Graphics/SVG/1.1/DTD/svg11.dtd">
<svg version="1.1" id="Layer_1" xmlns="http://www.w3.org/2000/svg" xmlns:xlink="http://www.w3.org/1999/xlink" x="0px" y="0px"
	 width="61.777px" height="91.377px" viewBox="0 0 61.777 91.377" enable-background="new 0 0 61.777 91.377" xml:space="preserve">
<g>
	<path fill-rule="evenodd" clip-rule="evenodd" fill="#C3996B" d="M58.829,33.855c-0.51-1.816-1.023-3.631-1.529-5.449
		c-0.43-1.537-0.84-3.076-1.273-4.609c-0.609-2.154-1.229-4.302-1.84-6.454c-0.484-1.694-0.941-3.398-1.463-5.085
		c-0.117-0.397-0.127-0.683,0.111-1.036c0.457-0.674,0.359-1.502-0.154-1.939c-0.24-0.207-0.428-0.279-0.508,0.146
		c-0.107,0.557-0.625,0.738-1.088,0.4c-0.32-0.232-0.623-0.488-0.965-0.689c-1.242-0.742-2.549-1.109-3.979-0.541
		c-0.754,0.3-1.49,0.65-2.264,0.879c-1.813,0.539-3.615,1.123-5.465,1.484c-1.373,0.268-2.807,0.227-4.217,0.291
		c-0.154,0.002-0.447-0.172-0.459-0.291c-0.072-0.566-0.215-1.182-0.061-1.701c0.395-1.336-0.117-2.289-1.008-3.201
		c-0.178-0.184-0.15-0.572-0.197-0.871c-0.039-0.23-0.047-0.465-0.07-0.695c-0.023-0.244-0.148-0.539-0.055-0.725
		c0.35-0.688,0.125-1.301-0.369-1.687c-0.258-0.202-0.648-0.351-1.018-0.394c-0.371,0.043-0.758,0.191-1.018,0.394
		c-0.492,0.386-0.721,0.999-0.369,1.687c0.094,0.186-0.035,0.48-0.057,0.725c-0.023,0.23-0.029,0.465-0.066,0.695
		c-0.051,0.299-0.023,0.688-0.205,0.871c-0.885,0.912-1.396,1.865-1.002,3.201c0.154,0.52,0.01,1.135-0.061,1.701
		c-0.014,0.119-0.307,0.293-0.463,0.291c-1.408-0.064-2.84-0.023-4.217-0.291c-1.846-0.361-3.653-0.945-5.463-1.484
		c-0.771-0.229-1.512-0.579-2.266-0.879c-1.427-0.568-2.731-0.201-3.979,0.541c-0.337,0.201-0.645,0.457-0.963,0.689
		c-0.46,0.338-0.98,0.156-1.086-0.4c-0.082-0.426-0.268-0.354-0.51-0.146c-0.517,0.438-0.607,1.266-0.152,1.939
		c0.236,0.354,0.227,0.639,0.107,1.036c-0.516,1.687-0.971,3.391-1.461,5.085c-0.605,2.152-1.232,4.3-1.839,6.454
		c-0.431,1.533-0.847,3.072-1.272,4.609c-0.509,1.818-1.02,3.633-1.533,5.449c-0.145,0.516-0.438,1.035-0.42,1.547
		c0.018,0.611,0.211,1.26,0.473,1.824c1.033,2.211,2.813,3.59,5.131,4.234c2.852,0.787,6.239-0.48,7.963-2.924
		c0.461-0.658,0.855-1.385,1.15-2.127c0.161-0.414,0.166-0.961,0.05-1.395c-0.442-1.686-0.976-3.342-1.448-5.021
		c-0.482-1.689-0.92-3.393-1.388-5.086c-0.411-1.482-0.858-2.951-1.265-4.435c-0.381-1.398-0.711-2.816-1.1-4.217
		c-0.377-1.353-0.787-2.695-1.216-4.033c-0.136-0.432-0.038-0.705,0.31-0.969c0.492-0.375,0.906-0.883,1.442-1.159
		c1.169-0.599,2.304-0.323,3.36,0.376c1.881,1.246,3.879,2.295,6.03,2.959c1.854,0.57,3.745,1.139,5.743,0.857
		c0.359-0.049,0.537,0.076,0.605,0.44c0.043,0.216,0.205,0.411,0.26,0.628c0.055,0.216,0.125,0.484,0.047,0.674
		c-0.205,0.494-0.08,0.873,0.32,1.15c0.461,0.313,0.59,0.727,0.645,1.266c0.275,2.813,0.018,5.618-0.242,8.411
		c-0.203,2.166-0.605,4.32-0.932,6.48c-0.037,0.266-0.166,0.52-0.188,0.787c-0.031,0.367-0.01,0.744,0.061,1.117
		c-0.357,0.596-0.564,0.82,0.186,1.623c-0.934,0.811-1.672,1.756-1.676,3.059c0,1.314,0.859,2.197,1.715,3.102
		c-0.527,0.4-0.77,0.84-0.271,1.492c-0.318,0.053-0.533,0.111-0.744,0.111c-1.166,0.01-2.332,0.021-3.496-0.006
		c-0.547-0.01-0.859,0.111-0.725,0.734c0.017,0.078,0.004,0.166,0.003,0.248c-0.009,1.27-0.009,1.271,1.237,1.252
		c0.352-0.006,0.706-0.018,1.06-0.033c0.536-0.02,0.763,0.215,0.692,0.764c-0.109,0.832,0.029,0.977,0.877,1.018
		c0.168,0.008,0.336-0.006,0.502,0.018c0.23,0.031,0.465,0.084,0.693,0.131c-0.096,0.258-0.135,0.555-0.293,0.764
		c-0.648,0.867-1.611,1.266-2.609,1.477c-2.159,0.453-4.348,0.717-6.566,0.627c-0.174-0.008-0.471,0.146-0.518,0.291
		c-0.137,0.402-0.425,0.477-0.769,0.512c-1.322,0.131-2.647,0.273-3.976,0.375c-0.52,0.037-0.819,0.203-0.813,0.779
		c0.014,0.637,0.434,0.658,0.902,0.658c5.395-0.006,10.793-0.008,16.186-0.006c0.295,0,0.586,0,0.883,0s0.59,0,0.881,0
		c5.395-0.002,10.793,0,16.186,0.006c0.469,0,0.889-0.021,0.902-0.658c0.01-0.576-0.291-0.742-0.811-0.779
		c-1.332-0.102-2.654-0.244-3.979-0.375c-0.342-0.035-0.631-0.109-0.762-0.512c-0.053-0.145-0.348-0.299-0.525-0.291
		c-2.219,0.09-4.404-0.174-6.566-0.627c-0.99-0.211-1.957-0.609-2.607-1.477c-0.156-0.209-0.199-0.506-0.291-0.764
		c0.227-0.047,0.457-0.1,0.695-0.131c0.164-0.023,0.33-0.01,0.496-0.018c0.85-0.041,0.988-0.186,0.881-1.018
		c-0.07-0.549,0.156-0.783,0.689-0.764c0.355,0.016,0.711,0.027,1.064,0.033c1.242,0.02,1.242,0.018,1.234-1.252
		c0-0.082-0.016-0.17,0.004-0.248c0.137-0.623-0.18-0.744-0.725-0.734c-1.166,0.027-2.334,0.016-3.5,0.006
		c-0.209,0-0.42-0.059-0.742-0.111c0.496-0.652,0.252-1.092-0.266-1.492c0.852-0.904,1.709-1.787,1.707-3.102
		c-0.002-1.303-0.74-2.248-1.672-3.059c0.75-0.803,0.539-1.027,0.184-1.623c0.07-0.373,0.094-0.75,0.061-1.117
		c-0.021-0.268-0.152-0.521-0.188-0.787c-0.324-2.16-0.727-4.314-0.928-6.48c-0.262-2.793-0.525-5.598-0.244-8.411
		c0.053-0.539,0.18-0.952,0.641-1.266c0.402-0.277,0.527-0.656,0.322-1.15c-0.076-0.189-0.006-0.458,0.049-0.674
		c0.055-0.217,0.217-0.412,0.26-0.628c0.066-0.364,0.25-0.489,0.607-0.44c1.994,0.281,3.885-0.287,5.738-0.857
		c2.154-0.664,4.148-1.713,6.031-2.959c1.059-0.699,2.193-0.975,3.357-0.376c0.543,0.276,0.955,0.784,1.447,1.159
		c0.348,0.264,0.447,0.537,0.311,0.969c-0.432,1.338-0.84,2.681-1.219,4.033c-0.389,1.4-0.721,2.818-1.102,4.217
		c-0.402,1.483-0.85,2.952-1.258,4.435c-0.469,1.693-0.91,3.396-1.395,5.086c-0.469,1.68-1.006,3.336-1.447,5.021
		c-0.115,0.434-0.111,0.98,0.051,1.395c0.297,0.742,0.689,1.469,1.152,2.127c1.723,2.443,5.111,3.711,7.961,2.924
		c2.32-0.645,4.1-2.023,5.131-4.234c0.264-0.564,0.457-1.213,0.477-1.824C59.268,34.89,58.977,34.371,58.829,33.855z M9.17,35.507
		c-1.791-0.016-3.579-0.016-5.372-0.031c-0.167,0-0.339-0.061-0.493-0.094c2.1-7.473,4.164-14.815,6.229-22.161
		c0.055,0.014,0.114,0.025,0.17,0.035c0.016,0.184,0.042,0.363,0.042,0.541c0.004,6.77,0.009,13.536,0.013,20.306
		c0,0.25-0.059,0.514,0,0.746C9.897,35.402,9.624,35.509,9.17,35.507z M12.362,19.317c0.314,1.096,0.672,2.173,0.971,3.271
		c0.324,1.199,0.566,2.422,0.897,3.619c0.62,2.26,1.281,4.506,1.923,6.762c0.184,0.637,0.285,1.311,0.575,1.9
		c0.253,0.52,0.138,0.623-0.36,0.625c-1.709,0.014-3.416,0.035-5.121,0.035c-0.754,0-0.844-0.113-0.844-0.881
		c-0.003-6.332-0.007-12.666-0.007-18.997c0-0.99,0-1.979,0-2.969c0.034-0.002,0.075-0.002,0.114-0.004
		c0.15,0.516,0.297,1.031,0.445,1.545C11.424,15.922,11.883,17.622,12.362,19.317z M51.522,15.651
		c0,6.331-0.002,12.665-0.006,18.997c0,0.768-0.092,0.881-0.846,0.881c-1.707,0-3.416-0.021-5.123-0.035
		c-0.494-0.002-0.613-0.105-0.355-0.625c0.285-0.59,0.391-1.264,0.576-1.9c0.641-2.256,1.297-4.502,1.922-6.762
		c0.332-1.197,0.572-2.42,0.898-3.619c0.291-1.098,0.654-2.175,0.965-3.271c0.48-1.695,0.941-3.395,1.41-5.094
		c0.145-0.514,0.295-1.029,0.443-1.545c0.043,0.002,0.078,0.002,0.115,0.004C51.522,13.672,51.522,14.661,51.522,15.651z
		 M58.122,35.476c-1.793,0.016-3.582,0.016-5.373,0.031c-0.455,0.002-0.732-0.105-0.586-0.658c0.055-0.232,0-0.496,0-0.746
		c0-6.77,0.008-13.536,0.014-20.306c0-0.178,0.023-0.357,0.037-0.541c0.057-0.01,0.115-0.021,0.174-0.035
		c2.066,7.346,4.125,14.688,6.229,22.161C58.461,35.416,58.29,35.476,58.122,35.476z"/>
	<g>
		<g>
			<g>
				<path fill="#FFFFFF" d="M6.617,67.578v-0.184h2.107v0.184c-0.608,0.031-0.907,0.373-0.907,1.023v5.117H7.611L3.112,68.65v3.824
					c0,0.332,0.063,0.566,0.184,0.697c0.123,0.135,0.369,0.234,0.736,0.289v0.184H1.876V73.46c0.29-0.041,0.505-0.141,0.63-0.297
					c0.125-0.154,0.188-0.398,0.188-0.725v-4.24c-0.242-0.252-0.41-0.412-0.5-0.482c-0.092-0.07-0.203-0.115-0.324-0.139v-0.184
					h1.877l3.652,4.193v-2.816c0-0.41-0.055-0.699-0.164-0.855C7.125,67.755,6.92,67.644,6.617,67.578z"/>
				<path fill="#FFFFFF" d="M18.288,67.578v-0.184h2.105v0.184c-0.604,0.031-0.907,0.373-0.907,1.023v5.117h-0.204l-4.494-5.068
					v3.824c0,0.332,0.056,0.566,0.181,0.697c0.12,0.135,0.364,0.234,0.737,0.289v0.184h-2.154V73.46
					c0.29-0.041,0.5-0.141,0.627-0.297c0.125-0.154,0.188-0.398,0.188-0.725v-4.24c-0.242-0.252-0.409-0.412-0.5-0.482
					c-0.094-0.07-0.205-0.115-0.33-0.139v-0.184h1.881l3.65,4.193v-2.816c0-0.41-0.051-0.699-0.164-0.855
					C18.797,67.755,18.59,67.644,18.288,67.578z"/>
				<path fill="#FFFFFF" d="M28.399,67.394v0.184c-0.332,0.086-0.547,0.18-0.645,0.287c-0.1,0.107-0.145,0.287-0.145,0.541v4.215
					c0,0.256,0.066,0.438,0.205,0.531c0.135,0.094,0.396,0.137,0.777,0.137c0.402,0,0.715-0.084,0.932-0.264
					c0.223-0.172,0.451-0.506,0.693-1.002h0.182l-0.182,1.621h-4.771V73.46c0.329-0.08,0.548-0.18,0.641-0.297
					c0.094-0.113,0.142-0.35,0.142-0.711v-3.998c0-0.281-0.051-0.482-0.151-0.592c-0.103-0.113-0.312-0.209-0.631-0.285v-0.184
					H28.399z"/>
				<path fill="#FFFFFF" d="M36.071,69.55h0.203v1.934h-0.203c-0.076-0.533-0.361-0.797-0.865-0.797h-1.102v1.834
					c0,0.285,0.063,0.482,0.189,0.6c0.133,0.113,0.352,0.168,0.666,0.168h0.363c0.611,0,1.047-0.387,1.311-1.16h0.184l-0.111,1.516
					h-4.762V73.46c0.311-0.066,0.523-0.154,0.627-0.281c0.105-0.121,0.152-0.363,0.152-0.719v-4.018
					c0-0.291-0.047-0.496-0.158-0.605c-0.105-0.115-0.313-0.201-0.621-0.26v-0.184h4.684v1.387h-0.18
					c-0.105-0.404-0.234-0.68-0.387-0.822c-0.154-0.137-0.406-0.209-0.748-0.209h-1.209v2.582h1.102c0.248,0,0.438-0.059,0.57-0.18
					C35.913,70.031,36.006,69.835,36.071,69.55z"/>
				<path fill="#FFFFFF" d="M44.381,67.394v1.754H44.19c-0.182-0.477-0.473-0.855-0.859-1.135c-0.389-0.285-0.816-0.424-1.287-0.424
					c-0.635,0-1.121,0.268-1.467,0.807c-0.348,0.539-0.518,1.299-0.518,2.279c0,0.906,0.17,1.594,0.512,2.068
					c0.346,0.475,0.84,0.707,1.494,0.707c0.627,0,0.939-0.219,0.939-0.662v-0.926c0-0.428-0.215-0.684-0.641-0.77V70.91h2.629v0.184
					c-0.23,0.063-0.393,0.164-0.477,0.303c-0.09,0.137-0.135,0.35-0.135,0.639v1.326c-0.623,0.299-1.436,0.443-2.426,0.443
					c-0.66,0-1.244-0.135-1.76-0.41c-0.51-0.273-0.912-0.66-1.201-1.172c-0.289-0.504-0.438-1.057-0.438-1.652
					c0-0.957,0.326-1.756,0.967-2.389c0.645-0.633,1.455-0.945,2.432-0.945c0.385,0,0.807,0.08,1.262,0.242
					c0.242,0.086,0.414,0.131,0.523,0.131c0.16,0,0.309-0.072,0.449-0.215H44.381z"/>
				<path fill="#FFFFFF" d="M50.256,73.644V73.46c0.258-0.047,0.438-0.107,0.543-0.178c0.107-0.07,0.16-0.172,0.16-0.301
					c0-0.105-0.041-0.266-0.125-0.479l-0.357-0.959h-2.232l-0.307,0.828c-0.08,0.213-0.119,0.381-0.119,0.508
					c0,0.277,0.207,0.473,0.627,0.58v0.184h-2.02V73.46c0.242-0.041,0.455-0.168,0.635-0.381c0.184-0.209,0.363-0.559,0.539-1.033
					l1.799-4.811h0.854l1.9,5c0.172,0.447,0.348,0.756,0.514,0.932c0.168,0.178,0.383,0.273,0.652,0.293v0.184H50.256z
					 M48.448,71.093h1.859l-0.951-2.537L48.448,71.093z"/>
				<path fill="#FFFFFF" d="M57.827,67.394v0.184c-0.334,0.086-0.549,0.18-0.646,0.287s-0.146,0.287-0.146,0.541v4.215
					c0,0.256,0.066,0.438,0.205,0.531s0.396,0.137,0.785,0.137c0.396,0,0.707-0.084,0.928-0.264
					c0.223-0.172,0.451-0.506,0.691-1.002h0.18l-0.18,1.621h-4.771V73.46c0.332-0.08,0.545-0.18,0.641-0.297
					c0.096-0.113,0.141-0.35,0.141-0.711v-3.998c0-0.281-0.051-0.482-0.148-0.592c-0.104-0.113-0.313-0.209-0.633-0.285v-0.184
					H57.827z"/>
			</g>
			<g>
				<path fill="#FFFFFF" d="M6.389,77.458v1.531h-0.15c-0.125-0.475-0.32-0.826-0.59-1.051c-0.27-0.227-0.633-0.336-1.078-0.336
					c-0.586,0-1.043,0.211-1.387,0.629c-0.34,0.418-0.512,0.98-0.512,1.68c0,0.764,0.182,1.385,0.539,1.85
					c0.365,0.471,0.83,0.705,1.416,0.705c0.806,0,1.402-0.381,1.79-1.131l0.136,0.127c-0.172,0.408-0.452,0.734-0.833,0.971
					c-0.382,0.236-0.819,0.357-1.313,0.357c-0.462,0-0.89-0.113-1.287-0.328c-0.395-0.221-0.698-0.523-0.913-0.904
					c-0.213-0.385-0.322-0.822-0.322-1.324c0-0.816,0.254-1.488,0.753-2.023c0.501-0.537,1.133-0.805,1.896-0.805
					c0.26,0,0.582,0.045,0.978,0.137c0.222,0.053,0.374,0.076,0.46,0.076c0.13,0,0.223-0.053,0.274-0.16H6.389z"/>
				<path fill="#FFFFFF" d="M8.272,80.072c0-0.76,0.266-1.395,0.786-1.902c0.528-0.508,1.181-0.764,1.965-0.764
					c0.762,0,1.403,0.258,1.929,0.775c0.529,0.514,0.792,1.146,0.792,1.891c0,0.764-0.266,1.406-0.798,1.93
					c-0.529,0.521-1.178,0.789-1.943,0.789c-0.764,0-1.409-0.268-1.935-0.789C8.538,81.478,8.272,80.835,8.272,80.072z M9.058,80.08
					c0,0.752,0.179,1.355,0.536,1.818c0.352,0.463,0.82,0.693,1.398,0.693c0.58,0,1.059-0.232,1.42-0.705
					c0.364-0.473,0.539-1.063,0.539-1.77c0-0.76-0.175-1.365-0.529-1.828c-0.354-0.457-0.816-0.686-1.379-0.686
					c-0.604,0-1.082,0.221-1.443,0.676C9.24,78.734,9.058,79.335,9.058,80.08z"/>
				<path fill="#FFFFFF" d="M19.25,77.681v-0.152h1.547v0.152c-0.248,0-0.42,0.055-0.516,0.176
					c-0.094,0.119-0.143,0.328-0.143,0.635v4.168h-0.158l-3.635-4.459v3.598c0,0.258,0.055,0.438,0.159,0.549
					c0.102,0.109,0.276,0.164,0.516,0.164v0.148h-1.556v-0.148c0.246,0,0.414-0.063,0.502-0.193
					c0.087-0.127,0.131-0.357,0.131-0.686V78.63c0-0.324-0.059-0.557-0.176-0.697c-0.121-0.143-0.314-0.225-0.584-0.252v-0.152
					h1.315l3.223,3.996v-2.998c0-0.316-0.044-0.531-0.134-0.658C19.655,77.742,19.49,77.681,19.25,77.681z"/>
				<path fill="#FFFFFF" d="M25.076,77.458h0.147v1.201h-0.152c-0.039-0.33-0.157-0.59-0.359-0.777
					c-0.208-0.188-0.468-0.279-0.782-0.279c-0.272,0-0.497,0.068-0.667,0.211c-0.166,0.137-0.25,0.324-0.25,0.563
					c0,0.213,0.066,0.408,0.209,0.586c0.137,0.178,0.441,0.406,0.907,0.688c0.544,0.324,0.907,0.605,1.095,0.846
					c0.184,0.246,0.279,0.521,0.279,0.832c0,0.402-0.146,0.746-0.43,1.031c-0.283,0.289-0.627,0.432-1.027,0.432
					c-0.234,0-0.53-0.07-0.892-0.195c-0.151-0.053-0.241-0.076-0.284-0.076c-0.083,0-0.15,0.064-0.197,0.193H22.52v-1.385h0.152
					c0.003,0.383,0.127,0.689,0.374,0.92c0.245,0.229,0.53,0.344,0.86,0.344c0.313,0,0.562-0.082,0.748-0.248
					c0.189-0.168,0.283-0.387,0.283-0.668c0-0.205-0.077-0.402-0.23-0.596c-0.154-0.188-0.478-0.434-0.97-0.73
					c-0.396-0.246-0.664-0.441-0.798-0.584s-0.234-0.303-0.297-0.469c-0.064-0.174-0.096-0.361-0.096-0.563
					c0-0.398,0.128-0.715,0.387-0.961c0.258-0.246,0.592-0.367,1.006-0.367c0.23,0,0.475,0.045,0.745,0.137
					c0.122,0.041,0.214,0.061,0.261,0.061c0.042,0,0.069-0.008,0.086-0.023C25.047,77.562,25.059,77.517,25.076,77.458z"/>
				<path fill="#FFFFFF" d="M31.03,81.587v-3.09c0-0.299-0.037-0.504-0.119-0.623c-0.078-0.119-0.221-0.184-0.426-0.193v-0.152
					h1.811v0.152c-0.217,0-0.371,0.059-0.455,0.182c-0.084,0.119-0.129,0.326-0.129,0.639v3.195c0,0.303,0.045,0.51,0.127,0.637
					c0.082,0.119,0.236,0.178,0.457,0.178v0.148H31.03v-0.715c-0.479,0.564-1.051,0.846-1.707,0.846
					c-0.543,0-0.969-0.164-1.279-0.488c-0.311-0.322-0.465-0.746-0.465-1.279v-2.525c0-0.309-0.043-0.516-0.117-0.635
					c-0.082-0.123-0.238-0.182-0.463-0.182v-0.152h1.852v0.152c-0.23,0-0.387,0.055-0.467,0.176
					c-0.08,0.119-0.121,0.328-0.121,0.635v2.596c0,0.42,0.113,0.752,0.342,0.992c0.232,0.238,0.553,0.357,0.963,0.357
					C30.174,82.437,30.665,82.154,31.03,81.587z"/>
				<path fill="#FFFFFF" d="M37.795,81.541h0.15l-0.314,1.119h-3.713v-0.148c0.207,0,0.355-0.063,0.445-0.195
					c0.09-0.135,0.133-0.352,0.133-0.664v-3.227c0-0.279-0.039-0.469-0.123-0.578c-0.08-0.115-0.234-0.166-0.455-0.166v-0.152h1.834
					v0.152c-0.203,0-0.35,0.064-0.439,0.188c-0.088,0.127-0.135,0.332-0.135,0.623v3.426c0,0.189,0.043,0.318,0.121,0.391
					c0.08,0.07,0.236,0.104,0.461,0.104h1.021c0.314,0,0.533-0.053,0.662-0.16C37.567,82.14,37.684,81.902,37.795,81.541z"/>
				<path fill="#FFFFFF" d="M41.903,77.783h-0.775v3.941c0,0.307,0.035,0.52,0.113,0.623c0.07,0.113,0.227,0.164,0.441,0.164v0.148
					h-1.814v-0.148c0.223,0,0.377-0.063,0.459-0.186c0.08-0.119,0.123-0.334,0.123-0.629v-3.914h-0.742
					c-0.355,0-0.615,0.059-0.777,0.168c-0.166,0.113-0.256,0.301-0.273,0.564h-0.154v-1.174h0.154
					c0.135,0.129,0.395,0.188,0.77,0.188h2.689c0.385,0,0.658-0.059,0.811-0.188h0.16v1.174h-0.096
					c-0.064-0.283-0.182-0.473-0.346-0.578C42.481,77.833,42.235,77.783,41.903,77.783z"/>
				<path fill="#FFFFFF" d="M46.303,77.529v0.152c-0.219,0-0.373,0.059-0.455,0.182c-0.086,0.119-0.125,0.326-0.125,0.639v3.195
					c0,0.311,0.039,0.518,0.125,0.639c0.082,0.119,0.236,0.176,0.455,0.176v0.148h-1.848v-0.148c0.225,0,0.377-0.057,0.459-0.17
					c0.084-0.123,0.123-0.334,0.123-0.645v-3.195c0-0.316-0.039-0.531-0.119-0.645c-0.082-0.121-0.236-0.176-0.463-0.176v-0.152
					H46.303z"/>
				<path fill="#FFFFFF" d="M51.522,77.681v-0.152h1.547v0.152c-0.246,0-0.418,0.055-0.514,0.176
					c-0.098,0.119-0.146,0.328-0.146,0.635v4.168h-0.156l-3.639-4.459v3.598c0,0.258,0.055,0.438,0.158,0.549
					c0.105,0.109,0.279,0.164,0.521,0.164v0.148h-1.561v-0.148c0.25,0,0.418-0.063,0.506-0.193c0.088-0.127,0.131-0.357,0.131-0.686
					V78.63c0-0.324-0.057-0.557-0.178-0.697c-0.119-0.143-0.313-0.225-0.584-0.252v-0.152h1.32l3.219,3.996v-2.998
					c0-0.316-0.045-0.531-0.131-0.658C51.928,77.742,51.758,77.681,51.522,77.681z"/>
				<path fill="#FFFFFF" d="M59.911,80.441v0.148c-0.229,0-0.389,0.049-0.488,0.154c-0.098,0.104-0.146,0.285-0.146,0.535v1.381
					c-0.117,0.037-0.342,0.061-0.67,0.092c-0.33,0.021-0.582,0.039-0.762,0.039c-0.949,0-1.686-0.232-2.219-0.705
					c-0.525-0.461-0.793-1.078-0.793-1.842c0-0.533,0.119-1.012,0.348-1.441c0.236-0.426,0.557-0.768,0.971-1.02
					c0.416-0.254,0.861-0.377,1.324-0.377c0.279,0,0.586,0.053,0.912,0.146c0.213,0.064,0.373,0.094,0.482,0.094
					c0.145,0,0.242-0.055,0.289-0.174h0.162v1.518h-0.146c-0.055-0.422-0.246-0.758-0.568-1.008
					c-0.322-0.252-0.697-0.379-1.131-0.379c-0.543,0-0.984,0.213-1.336,0.648c-0.346,0.434-0.518,0.994-0.518,1.678
					c0,0.754,0.201,1.373,0.6,1.869c0.402,0.498,0.906,0.744,1.514,0.744c0.574,0,0.859-0.182,0.859-0.545v-0.559
					c0-0.314-0.041-0.535-0.125-0.66c-0.082-0.129-0.229-0.189-0.438-0.189h-0.199v-0.148H59.911z"/>
			</g>
		</g>
		<g>
			<g>
				<g>
					<g>
						<path fill-rule="evenodd" clip-rule="evenodd" fill="#FFFFFF" d="M32.296,60.779c0.38,0.285,0.38,0.751,0,1.035l-0.719,0.539
							c-0.38,0.284-1.001,0.284-1.38-0.001l-0.717-0.537c-0.379-0.285-0.379-0.752,0.001-1.036l0.715-0.537
							c0.38-0.284,1.001-0.285,1.381,0L32.296,60.779z"/>
					</g>
					<g>
						<g>
							<path fill-rule="evenodd" clip-rule="evenodd" fill="#FFFFFF" d="M34.886,60.822c0.348,0.261,0.348,0.688,0,0.95
								s-0.917,0.262-1.266,0s-0.349-0.689,0-0.95S34.539,60.561,34.886,60.822z"/>
						</g>
						<g>
							<path fill-rule="evenodd" clip-rule="evenodd" fill="#FFFFFF" d="M59.762,60.822c0.347,0.261,0.347,0.688,0,0.95
								s-0.917,0.262-1.266,0s-0.349-0.689,0-0.95S59.416,60.561,59.762,60.822z"/>
						</g>
						<g>
							<path fill-rule="evenodd" clip-rule="evenodd" fill="#FFFFFF" d="M58.452,61.298c0,0.175-0.389,0.318-0.862,0.318H35.958
								c-0.474,0-0.862-0.144-0.862-0.318s0.389-0.318,0.862-0.318h21.631C58.063,60.98,58.452,61.124,58.452,61.298z"/>
						</g>
					</g>
					<g>
						<g>
							<path fill-rule="evenodd" clip-rule="evenodd" fill="#FFFFFF" d="M3.281,60.822c0.348,0.261,0.348,0.688,0,0.95
								s-0.918,0.262-1.266,0s-0.348-0.689,0-0.95S2.933,60.561,3.281,60.822z"/>
						</g>
						<g>
							<path fill-rule="evenodd" clip-rule="evenodd" fill="#FFFFFF" d="M28.157,60.822c0.349,0.261,0.349,0.688,0,0.95
								s-0.919,0.262-1.266,0s-0.347-0.689,0-0.95S27.808,60.561,28.157,60.822z"/>
						</g>
						<g>
							<path fill-rule="evenodd" clip-rule="evenodd" fill="#FFFFFF" d="M26.846,61.298c0,0.175-0.389,0.318-0.862,0.318H4.354
								c-0.475,0-0.863-0.144-0.863-0.318s0.388-0.318,0.863-0.318h21.63C26.458,60.98,26.846,61.124,26.846,61.298z"/>
						</g>
					</g>
				</g>
			</g>
			<g>
				<g>
					<g>
						<path fill-rule="evenodd" clip-rule="evenodd" fill="#FFFFFF" d="M32.296,87.9c0.38,0.284,0.38,0.751,0,1.035l-0.719,0.541
							c-0.38,0.284-1.001,0.284-1.38-0.001l-0.717-0.539c-0.379-0.285-0.379-0.752,0-1.037l0.717-0.537
							c0.379-0.285,1-0.285,1.38-0.001L32.296,87.9z"/>
					</g>
					<g>
						<g>
							<path fill-rule="evenodd" clip-rule="evenodd" fill="#FFFFFF" d="M34.886,87.943c0.348,0.261,0.348,0.688,0,0.948
								s-0.917,0.261-1.266,0s-0.349-0.688,0-0.948S34.539,87.682,34.886,87.943z"/>
						</g>
						<g>
							<path fill-rule="evenodd" clip-rule="evenodd" fill="#FFFFFF" d="M59.762,87.943c0.347,0.261,0.347,0.688,0,0.948
								s-0.917,0.261-1.266,0s-0.349-0.688,0-0.948S59.416,87.682,59.762,87.943z"/>
						</g>
						<g>
							<path fill-rule="evenodd" clip-rule="evenodd" fill="#FFFFFF" d="M58.452,88.417c0,0.174-0.389,0.315-0.862,0.315H35.958
								c-0.474,0-0.862-0.142-0.862-0.315s0.389-0.315,0.862-0.315h21.631C58.063,88.101,58.452,88.243,58.452,88.417z"/>
						</g>
					</g>
					<g>
						<g>
							<path fill-rule="evenodd" clip-rule="evenodd" fill="#FFFFFF" d="M3.281,87.943c0.348,0.261,0.348,0.688,0,0.948
								s-0.918,0.261-1.266,0s-0.348-0.688,0-0.948S2.933,87.682,3.281,87.943z"/>
						</g>
						<g>
							<path fill-rule="evenodd" clip-rule="evenodd" fill="#FFFFFF" d="M28.157,87.943c0.349,0.261,0.349,0.688,0,0.948
								s-0.919,0.261-1.266,0s-0.347-0.688,0-0.948S27.808,87.682,28.157,87.943z"/>
						</g>
						<g>
							<path fill-rule="evenodd" clip-rule="evenodd" fill="#FFFFFF" d="M26.846,88.417c0,0.174-0.389,0.315-0.862,0.315H4.354
								c-0.475,0-0.863-0.142-0.863-0.315s0.388-0.315,0.863-0.315h21.63C26.458,88.101,26.846,88.243,26.846,88.417z"/>
						</g>
					</g>
				</g>
			</g>
		</g>
	</g>
</g>
</svg>
